<svg width="20" height="20" viewBox="0 0 20 20" fill="none" xmlns="http://www.w3.org/2000/svg">
<g id="icons8-instagram (1) 1">
<path id="Vector" d="M6.39922 1.19995C3.53122 1.19995 1.19922 3.53195 1.19922 6.39995V13.6C1.19922 16.468 3.53122 18.8 6.39922 18.8H13.5992C16.4672 18.8 18.7992 16.468 18.7992 13.6V6.39995C18.7992 3.53195 16.4672 1.19995 13.5992 1.19995H6.39922ZM14.7992 4.39995C15.2392 4.39995 15.5992 4.75995 15.5992 5.19995C15.5992 5.63995 15.2392 5.99995 14.7992 5.99995C14.3592 5.99995 13.9992 5.63995 13.9992 5.19995C13.9992 4.75995 14.3592 4.39995 14.7992 4.39995ZM9.99922 5.59995C12.4272 5.59995 14.3992 7.57195 14.3992 9.99995C14.3992 12.428 12.4272 14.4 9.99922 14.4C7.57122 14.4 5.59922 12.428 5.59922 9.99995C5.59922 7.57195 7.57122 5.59995 9.99922 5.59995ZM9.99922 6.39995C8.01522 6.39995 6.39922 8.01595 6.39922 9.99995C6.39922 11.984 8.01522 13.6 9.99922 13.6C11.9832 13.6 13.5992 11.984 13.5992 9.99995C13.5992 8.01595 11.9832 6.39995 9.99922 6.39995Z" fill="#F0EEEE"/>
</g>
</svg>
